<?xml version="1.0" standalone="no"?> <!DOCTYPE svg PUBLIC "-//W3C//DTD SVG 20010904//EN" "http://www.w3.org/TR/2001/REC-SVG-20010904/DTD/svg10.dtd"> <svg version="1.0" xmlns="http://www.w3.org/2000/svg" width="1200.000000pt" height="188.000000pt" viewBox="0 0 1200.000000 188.000000" preserveAspectRatio="xMidYMid meet"> <g transform="translate(0.000000,188.000000) scale(0.100000,-0.100000)" fill="#ffffff" stroke="none"> <path d="M136 1681 c-2 -3 -5 -118 -7 -256 l-4 -250 35 0 c42 0 45 7 58 163 11 122 42 209 85 236 23 15 218 28 237 16 7 -4 10 -192 8 -633 -3 -585 -4 -627 -21 -644 -13 -13 -39 -19 -100 -23 l-82 -5 0 -40 0 -40 274 -5 c213 -4 277 -2 287 8 11 10 12 33 5 73 0 4 -40 9 -87 10 -71 3 -88 7 -100 23 -12 17 -14 121 -14 647 0 345 3 630 8 632 4 3 55 2 114 -1 99 -7 109 -9 136 -35 37 -36 58 -109 74 -253 6 -60 16 -115 21 -121 5 -7 22 -13 37 -13 15 0 30 6 32 13 3 6 0 122 -6 257 l-11 245 -488 1 c-268 1 -489 -1 -491 -5z"/> <path d="M1260 1644 c0 -49 8 -54 89 -54 98 0 91 53 91 -646 -1 -525 -3 -612 -16 -629 -12 -16 -29 -20 -89 -23 -69 -4 -76 -6 -81 -27 -3 -13 -4 -32 -2 -42 3 -17 21 -18 262 -23 142 -3 262 -2 268 1 5 3 8 24 6 45 l-3 39 -73 6 c-43 3 -78 11 -87 20 -12 11 -15 71 -17 317 -2 166 -1 302 2 303 3 0 126 1 274 2 l269 1 -2 -305 c-2 -246 -5 -307 -16 -318 -9 -9 -44 -17 -87 -20 l-73 -6 -3 -43 -3 -42 268 2 268 3 0 40 0 40 -79 6 c-61 4 -81 9 -92 24 -12 15 -14 127 -14 630 0 703 -9 645 96 645 75 0 97 14 92 60 l-3 35 -265 0 -265 0 -3 -33 c-5 -51 11 -62 88 -62 42 0 71 -5 78 -13 8 -9 19 -463 13 -542 -1 -12 -530 -11 -539 1 -4 5 -5 127 -2 272 4 219 8 264 20 272 8 5 42 10 75 10 77 0 87 7 83 56 l-3 39 -262 1 -263 0 0 -42z"/> <path d="M2642 1640 l3 -45 70 -3 c115 -4 105 55 105 -651 -1 -522 -3 -609 -16 -626 -12 -16 -29 -20 -88 -23 l-74 -4 -4 -33 c-2 -18 -2 -38 0 -44 3 -8 140 -11 482 -11 l478 0 6 88 c3 48 8 103 10 122 4 31 9 285 7 318 -1 9 -13 12 -38 10 l-38 -3 -17 -115 c-29 -199 -63 -277 -137 -307 -45 -19 -308 -32 -351 -18 -56 19 -55 13 -58 335 -2 241 -1 300 10 301 80 5 187 -12 216 -35 29 -21 45 -74 56 -185 12 -124 16 -131 70 -117 l22 5 -1 367 -1 366 -24 13 c-46 24 -56 7 -64 -107 -8 -121 -33 -184 -81 -208 -19 -9 -62 -14 -115 -15 l-85 0 0 271 c0 215 3 274 14 287 11 15 37 17 180 17 152 0 169 -2 201 -21 19 -12 40 -29 47 -38 25 -32 52 -121 64 -208 6 -48 15 -96 20 -105 11 -21 67 -25 75 -5 2 7 1 116 -3 243 l-8 229 -468 0 -468 1 3 -46z"/> <path d="M4106 1681 c-2 -3 -5 -118 -7 -256 l-4 -250 35 0 c39 0 38 -4 59 170 14 114 35 177 72 214 27 27 34 29 131 33 57 3 108 3 113 1 7 -2 9 -221 8 -635 -2 -559 -4 -633 -18 -647 -11 -11 -42 -18 -98 -21 l-82 -5 -3 -35 c-2 -21 2 -38 11 -45 9 -7 106 -8 288 -5 255 5 274 6 277 23 2 10 1 29 -2 42 -5 21 -12 23 -92 26 -71 3 -88 7 -100 23 -20 27 -21 1271 -1 1279 6 2 58 2 114 -2 89 -5 105 -9 127 -30 39 -36 64 -118 76 -242 6 -61 15 -120 21 -130 11 -22 64 -26 71 -6 2 6 1 84 -3 172 -4 88 -8 199 -8 246 l-1 86 -490 0 c-270 0 -492 -3 -494 -6z"/> <path d="M5230 1645 c0 -50 7 -55 89 -55 99 0 92 51 91 -631 0 -327 0 -602 0 -611 0 -39 -36 -58 -109 -58 -62 0 -70 -2 -76 -21 -4 -11 -4 -31 -1 -45 l6 -24 296 0 295 0 -3 43 -3 42 -101 5 c-64 3 -107 10 -117 19 -15 12 -17 47 -17 322 0 174 4 310 9 313 5 4 68 2 140 -3 107 -8 138 -14 166 -31 71 -44 94 -137 95 -386 0 -146 12 -206 48 -249 102 -122 283 -119 347 5 20 39 37 168 33 250 l-3 65 -45 0 -45 0 0 -127 c0 -113 -2 -130 -21 -155 -26 -34 -53 -40 -83 -16 -19 16 -30 54 -68 238 -56 272 -71 316 -134 378 -27 26 -56 47 -64 47 -8 0 -15 8 -15 18 1 11 29 34 78 62 167 98 224 260 150 422 -44 95 -151 180 -265 210 -21 5 -181 11 -355 12 l-318 3 0 -42z m645 -66 c58 -16 92 -44 120 -100 22 -43 25 -60 25 -166 0 -110 -2 -122 -28 -167 -15 -27 -39 -58 -53 -69 -38 -28 -139 -46 -256 -47 l-103 0 0 258 c0 217 2 261 16 280 14 20 23 22 127 22 62 0 130 -5 152 -11z"/> <path d="M6495 1682 c-3 -3 -5 -22 -5 -43 0 -44 9 -49 95 -49 55 0 66 -3 75 -21 8 -14 12 -203 12 -631 0 -540 -2 -612 -16 -626 -10 -10 -42 -18 -88 -21 l-73 -6 -3 -42 -3 -43 265 0 266 0 0 45 0 45 -65 0 c-57 0 -69 3 -90 25 l-25 24 0 603 c0 696 -7 648 90 648 82 0 90 5 90 54 l0 42 -260 0 c-143 0 -262 -2 -265 -4z"/> <path d="M7155 1682 c-3 -3 -5 -22 -5 -43 0 -44 9 -49 89 -49 98 0 91 53 91 -646 0 -500 -2 -614 -14 -629 -10 -14 -31 -20 -87 -24 l-74 -6 -3 -42 -3 -43 293 0 c328 0 389 8 488 61 141 75 220 218 207 375 -10 126 -102 256 -217 308 -33 15 -61 30 -64 34 -8 13 8 29 53 51 92 47 158 140 182 258 11 53 10 68 -6 119 -25 82 -48 124 -87 160 -51 48 -93 74 -156 97 -53 19 -80 21 -369 22 -172 1 -315 0 -318 -3z m662 -113 c33 -18 57 -40 78 -74 29 -48 30 -51 29 -177 -1 -115 -4 -133 -26 -175 -17 -33 -39 -57 -73 -78 -48 -30 -50 -30 -189 -30 -128 0 -141 2 -140 18 0 9 1 125 2 257 l2 241 26 26 c25 25 28 25 134 21 90 -4 116 -9 157 -29z m-11 -655 c47 -20 92 -62 116 -107 16 -31 22 -67 26 -148 7 -148 -3 -209 -41 -266 -49 -72 -99 -93 -238 -100 -104 -5 -116 -4 -139 15 l-25 20 -5 297 c-3 172 -1 300 4 305 13 13 265 -1 302 -16z"/> <path d="M8242 1641 l3 -46 80 -5 c72 -5 81 -7 92 -30 10 -19 13 -142 13 -522 0 -528 2 -548 50 -650 28 -60 106 -133 174 -163 73 -32 179 -46 263 -34 168 24 279 122 325 288 16 59 18 111 18 554 0 581 -5 557 108 557 63 0 74 9 70 56 l-3 39 -225 0 -225 0 -3 -33 c-5 -48 12 -62 75 -62 44 0 58 -5 78 -25 l25 -24 0 -499 c0 -478 -1 -503 -21 -567 -38 -122 -133 -191 -264 -189 -112 1 -201 57 -252 162 l-28 57 -3 524 c-4 609 -12 561 100 561 65 0 69 1 79 27 5 15 8 37 5 48 -5 21 -10 21 -271 21 l-266 0 3 -45z"/> <path d="M9546 1683 c-11 -11 -7 -68 6 -81 7 -7 27 -12 45 -12 46 0 87 -23 110 -62 19 -32 19 -54 15 -606 -4 -568 -4 -574 -26 -598 -17 -20 -35 -26 -86 -32 l-65 -7 -3 -42 -3 -43 251 0 251 0 -3 43 -3 42 -85 7 c-75 6 -88 10 -107 33 -13 14 -23 38 -23 53 0 15 -1 246 -4 514 -2 269 -1 490 3 492 15 10 30 -15 115 -189 47 -99 178 -363 289 -587 l202 -407 60 0 60 -1 -3 652 c-1 359 0 663 3 675 10 41 44 63 99 63 67 0 78 8 74 56 l-3 39 -243 2 -243 1 3 -46 3 -47 84 -5 c133 -8 124 27 128 -487 3 -235 5 -441 6 -458 2 -25 -2 -30 -20 -30 -17 0 -37 32 -117 190 -52 105 -111 218 -131 253 -35 64 -244 458 -300 567 l-31 60 -151 2 c-82 1 -153 -1 -157 -4z"/> <path d="M10854 1681 c-2 -2 -4 -19 -4 -37 0 -43 21 -54 99 -54 98 0 91 49 91 -650 -1 -517 -3 -608 -15 -625 -12 -15 -32 -20 -93 -25 l-77 -5 0 -40 0 -40 485 0 485 0 2 110 c1 61 7 177 13 258 6 81 8 152 5 157 -3 6 -22 10 -40 10 -42 0 -55 -20 -55 -87 -1 -74 -25 -193 -50 -246 -44 -94 -103 -115 -328 -118 -88 -1 -118 2 -137 15 l-24 16 -3 293 c-2 160 -1 298 1 305 4 16 125 16 172 1 76 -26 99 -77 99 -222 0 -95 9 -110 61 -105 l32 3 -1 368 c-1 202 -4 372 -7 377 -9 14 -61 12 -73 -2 -6 -7 -12 -60 -14 -118 -5 -168 -32 -199 -177 -208 -73 -4 -91 -2 -91 9 -5 150 3 546 12 556 8 10 53 13 178 13 157 0 169 -1 201 -23 64 -43 89 -103 121 -287 l13 -75 38 -3 38 -3 -6 233 c-4 128 -8 238 -10 245 -3 9 -120 11 -470 10 -256 -1 -468 -4 -471 -6z"/> </g> </svg>
